<svg width="152" height="171" viewBox="0 0 152 171" fill="none" xmlns="http://www.w3.org/2000/svg">
<g clip-path="url(#clip0_133_5079)">
<path fill-rule="evenodd" clip-rule="evenodd" d="M8.86574 103.523L24.0772 118.748L109.279 33.5143L76.2878 0.511292L8.87286 67.988C6.53805 70.3197 4.68559 73.0888 3.42144 76.1373C2.1573 79.1858 1.50628 82.4538 1.50562 85.7542C1.50495 89.0546 2.15465 92.3226 3.41756 95.3718C4.68048 98.421 6.53182 101.191 8.86574 103.523Z" fill="#061499"/>
<path fill-rule="evenodd" clip-rule="evenodd" d="M144.313 102.959C144.123 103.161 143.929 103.362 143.732 103.559L128.748 118.549L128.65 118.647L76.3166 171L61.0981 155.783C58.7648 153.451 56.9138 150.682 55.6509 147.633C54.388 144.585 53.738 141.318 53.738 138.018C53.738 134.719 54.388 131.452 55.6509 128.404C56.9138 125.356 58.7648 122.587 61.0981 120.254L95.6778 85.6801L61.1986 51.2065C58.8675 48.8747 57.0183 46.1063 55.7566 43.0596C54.495 40.0128 53.8456 36.7473 53.8456 33.4494C53.8456 30.1516 54.495 26.8861 55.7566 23.8393C57.0183 20.7925 58.8675 18.0242 61.1986 15.6924L76.4174 0.439331L143.832 67.916C148.542 72.621 151.191 79.0052 151.196 85.6635C151.201 92.106 148.731 98.2951 144.313 102.959Z" fill="#2C40F7"/>
</g>
<defs>
<clipPath id="clip0_133_5079">
<rect width="150.41" height="170.561" fill="white" transform="translate(0.794922 0.439331)"/>
</clipPath>
</defs>
</svg>
